{
    "asset" : {
        "generator" : "Khronos glTF Blender I/O v1.2.75",
        "version" : "2.0"
    },
    "scene" : 0,
    "scenes" : [
        {
            "extras" : {
                "blender_osm" : {
                    "defaultLevels" : [
                        {
                            "levels" : 4,
                            "weight" : 10
                        },
                        {
                            "levels" : 5,
                            "weight" : 40
                        },
                        {
                            "levels" : 6,
                            "weight" : 10
                        }
                    ]
                },
                "blenderkitUI" : {
                    "assetbar_on" : 0,
                    "turn_off" : 1
                },
                "uuid" : "c223b2bc-64eb-4cd4-9d6b-c937a14cbc26",
                "glTF2ExportSettings" : {
                    "export_extras" : 1,
                    "export_format" : "GLTF_EMBEDDED",
                    "export_materials" : 1
                }
            },
            "name" : "Scene",
            "nodes" : [
                0
            ]
        }
    ],
    "nodes" : [
        {
            "mesh" : 0,
            "name" : "Glasses",
            "translation" : [
                2.006105422973633,
                7.091640949249268,
                -12.80679988861084
            ]
        }
    ],
    "materials" : [
        {
            "doubleSided" : true,
            "emissiveFactor" : [
                0,
                0,
                0
            ],
            "name" : "Material.004",
            "pbrMetallicRoughness" : {
                "baseColorFactor" : [
                    0.800000011920929,
                    0.800000011920929,
                    0.800000011920929,
                    1
                ],
                "metallicFactor" : 0,
                "roughnessFactor" : 0.5
            }
        },
        {
            "doubleSided" : true,
            "emissiveFactor" : [
                0,
                0,
                0
            ],
            "name" : "Material.005",
            "pbrMetallicRoughness" : {
                "baseColorFactor" : [
                    0.21414130926132202,
                    0.21652548015117645,
                    0.8000000715255737,
                    1
                ],
                "metallicFactor" : 0,
                "roughnessFactor" : 0
            }
        },
        {
            "doubleSided" : true,
            "emissiveFactor" : [
                0,
                0,
                0
            ],
            "name" : "Material.006",
            "pbrMetallicRoughness" : {
                "baseColorFactor" : [
                    0.8000000715255737,
                    0.0008070457843132317,
                    0,
                    1
                ],
                "metallicFactor" : 0,
                "roughnessFactor" : 0
            }
        }
    ],
    "meshes" : [
        {
            "name" : "Circle.049",
            "primitives" : [
                {
                    "attributes" : {
                        "POSITION" : 0,
                        "NORMAL" : 1,
                        "TEXCOORD_0" : 2
                    },
                    "indices" : 3,
                    "material" : 0
                },
                {
                    "attributes" : {
                        "POSITION" : 4,
                        "NORMAL" : 5,
                        "TEXCOORD_0" : 6
                    },
                    "indices" : 7,
                    "material" : 1
                },
                {
                    "attributes" : {
                        "POSITION" : 8,
                        "NORMAL" : 9,
                        "TEXCOORD_0" : 10
                    },
                    "indices" : 7,
                    "material" : 2
                }
            ]
        }
    ],
    "accessors" : [
        {
            "bufferView" : 0,
            "componentType" : 5126,
            "count" : 926,
            "max" : [
                0.35039541125297546,
                0.4860001802444458,
                0.7492520809173584
            ],
            "min" : [
                -1.5066485404968262,
                -7.724764827798936e-08,
                -1.2820922136306763
            ],
            "type" : "VEC3"
        },
        {
            "bufferView" : 1,
            "componentType" : 5126,
            "count" : 926,
            "type" : "VEC3"
        },
        {
            "bufferView" : 2,
            "componentType" : 5126,
            "count" : 926,
            "type" : "VEC2"
        },
        {
            "bufferView" : 3,
            "componentType" : 5123,
            "count" : 1236,
            "type" : "SCALAR"
        },
        {
            "bufferView" : 4,
            "componentType" : 5126,
            "count" : 20,
            "max" : [
                0.2996276021003723,
                0.38880017399787903,
                -0.18365654349327087
            ],
            "min" : [
                0.09308525919914246,
                0.09720002114772797,
                -0.6342991590499878
            ],
            "type" : "VEC3"
        },
        {
            "bufferView" : 5,
            "componentType" : 5126,
            "count" : 20,
            "type" : "VEC3"
        },
        {
            "bufferView" : 6,
            "componentType" : 5126,
            "count" : 20,
            "type" : "VEC2"
        },
        {
            "bufferView" : 7,
            "componentType" : 5123,
            "count" : 54,
            "type" : "SCALAR"
        },
        {
            "bufferView" : 8,
            "componentType" : 5126,
            "count" : 20,
            "max" : [
                -0.07835838198661804,
                0.38880017399787903,
                0.6410489082336426
            ],
            "min" : [
                -0.2849007248878479,
                0.09720002114772797,
                0.19040629267692566
            ],
            "type" : "VEC3"
        },
        {
            "bufferView" : 9,
            "componentType" : 5126,
            "count" : 20,
            "type" : "VEC3"
        },
        {
            "bufferView" : 10,
            "componentType" : 5126,
            "count" : 20,
            "type" : "VEC2"
        }
    ],
    "bufferViews" : [
        {
            "buffer" : 0,
            "byteLength" : 11112,
            "byteOffset" : 0
        },
        {
            "buffer" : 0,
            "byteLength" : 11112,
            "byteOffset" : 11112
        },
        {
            "buffer" : 0,
            "byteLength" : 7408,
            "byteOffset" : 22224
        },
        {
            "buffer" : 0,
            "byteLength" : 2472,
            "byteOffset" : 29632
        },
        {
            "buffer" : 0,
            "byteLength" : 240,
            "byteOffset" : 32104
        },
        {
            "buffer" : 0,
            "byteLength" : 240,
            "byteOffset" : 32344
        },
        {
            "buffer" : 0,
            "byteLength" : 160,
            "byteOffset" : 32584
        },
        {
            "buffer" : 0,
            "byteLength" : 108,
            "byteOffset" : 32744
        },
        {
            "buffer" : 0,
            "byteLength" : 240,
            "byteOffset" : 32852
        },
        {
            "buffer" : 0,
            "byteLength" : 240,
            "byteOffset" : 33092
        },
        {
            "buffer" : 0,
            "byteLength" : 160,
            "byteOffset" : 33332
        }
    ],
    "buffers" : [
        {
            "byteLength" : 33492,
            "uri" : "data:application/octet-stream;base64,"
        }
    ]
}
