{
    "asset" : {
        "generator" : "Khronos glTF Blender I/O v1.2.75",
        "version" : "2.0"
    },
    "scene" : 0,
    "scenes" : [
        {
            "extras" : {
                "blender_osm" : {
                    "defaultLevels" : [
                        {
                            "levels" : 4,
                            "weight" : 10
                        },
                        {
                            "levels" : 5,
                            "weight" : 40
                        },
                        {
                            "levels" : 6,
                            "weight" : 10
                        }
                    ]
                },
                "blenderkitUI" : {
                    "assetbar_on" : 0,
                    "turn_off" : 1
                },
                "uuid" : "c223b2bc-64eb-4cd4-9d6b-c937a14cbc26",
                "glTF2ExportSettings" : {
                    "export_extras" : 1,
                    "export_format" : "GLTF_EMBEDDED",
                    "export_materials" : 1
                }
            },
            "name" : "Scene",
            "nodes" : [
                0
            ]
        }
    ],
    "nodes" : [
        {
            "mesh" : 0,
            "name" : "Wall_Left",
            "translation" : [
                0,
                17.800003051757812,
                0
            ]
        }
    ],
    "materials" : [
        {
            "doubleSided" : true,
            "emissiveFactor" : [
                0,
                0,
                0
            ],
            "name" : "Painting_White",
            "pbrMetallicRoughness" : {
                "baseColorFactor" : [
                    0.6859566569328308,
                    0.6859566569328308,
                    0.6859566569328308,
                    1
                ],
                "metallicFactor" : 0,
                "roughnessFactor" : 0.699999988079071
            }
        },
        {
            "doubleSided" : true,
            "emissiveFactor" : [
                0,
                0,
                0
            ],
            "name" : "Chimney_Black",
            "pbrMetallicRoughness" : {
                "baseColorFactor" : [
                    0,
                    0,
                    0,
                    1
                ],
                "metallicFactor" : 0,
                "roughnessFactor" : 0.5
            }
        }
    ],
    "meshes" : [
        {
            "name" : "Plane.004",
            "primitives" : [
                {
                    "attributes" : {
                        "POSITION" : 0,
                        "NORMAL" : 1,
                        "TEXCOORD_0" : 2
                    },
                    "indices" : 3,
                    "material" : 0
                },
                {
                    "attributes" : {
                        "POSITION" : 4,
                        "NORMAL" : 5,
                        "TEXCOORD_0" : 6
                    },
                    "indices" : 7,
                    "material" : 1
                }
            ]
        }
    ],
    "accessors" : [
        {
            "bufferView" : 0,
            "componentType" : 5126,
            "count" : 414,
            "max" : [
                1.7285399436950684,
                1,
                1.1920928955078125e-07
            ],
            "min" : [
                -2.0000007152557373,
                -17.800003051757812,
                -20
            ],
            "type" : "VEC3"
        },
        {
            "bufferView" : 1,
            "componentType" : 5126,
            "count" : 414,
            "type" : "VEC3"
        },
        {
            "bufferView" : 2,
            "componentType" : 5126,
            "count" : 414,
            "type" : "VEC2"
        },
        {
            "bufferView" : 3,
            "componentType" : 5123,
            "count" : 768,
            "type" : "SCALAR"
        },
        {
            "bufferView" : 4,
            "componentType" : 5126,
            "count" : 80,
            "max" : [
                1.7285399436950684,
                -12.60000228881836,
                0
            ],
            "min" : [
                -2.0000007152557373,
                -17.800003051757812,
                -20
            ],
            "type" : "VEC3"
        },
        {
            "bufferView" : 5,
            "componentType" : 5126,
            "count" : 80,
            "type" : "VEC3"
        },
        {
            "bufferView" : 6,
            "componentType" : 5126,
            "count" : 80,
            "type" : "VEC2"
        },
        {
            "bufferView" : 7,
            "componentType" : 5123,
            "count" : 132,
            "type" : "SCALAR"
        }
    ],
    "bufferViews" : [
        {
            "buffer" : 0,
            "byteLength" : 4968,
            "byteOffset" : 0
        },
        {
            "buffer" : 0,
            "byteLength" : 4968,
            "byteOffset" : 4968
        },
        {
            "buffer" : 0,
            "byteLength" : 3312,
            "byteOffset" : 9936
        },
        {
            "buffer" : 0,
            "byteLength" : 1536,
            "byteOffset" : 13248
        },
        {
            "buffer" : 0,
            "byteLength" : 960,
            "byteOffset" : 14784
        },
        {
            "buffer" : 0,
            "byteLength" : 960,
            "byteOffset" : 15744
        },
        {
            "buffer" : 0,
            "byteLength" : 640,
            "byteOffset" : 16704
        },
        {
            "buffer" : 0,
            "byteLength" : 264,
            "byteOffset" : 17344
        }
    ],
    "buffers" : [
        {
            "byteLength" : 17608,
            "uri" : "data:application/octet-stream;base64,"
        }
    ]
}
